Coordinates
version=1
nRows=24
nColumns=22
inDegrees=yes

Units are S.I. units (second, meters, Newtons, ...)
If the header above contains a line with 'inDegrees', this indicates whether rotational values are in degrees (yes) or radians (no).

endheader
time	pelvis_tilt	pelvis_list	pelvis_rotation	pelvis_tx	pelvis_ty	pelvis_tz	hip_flexion_r	hip_adduction_r	hip_rotation_r	knee_angle_r	ankle_angle_r	subtalar_angle_r	hip_flexion_l	hip_adduction_l	hip_rotation_l	knee_angle_l	ankle_angle_l	subtalar_angle_l	lumbar_extension	lumbar_bending	lumbar_rotation
      3.67000000	     -8.87869893	     -4.16942554	     -7.95993810	      1.33773271	      0.96702277	      0.25669211	      9.64591977	      5.57274702	     -3.49641944	    -39.70254599	     17.15333220	      9.30688381	     34.76304895	     -3.65484192	     -1.33024012	    -29.10827926	      7.99831746	      0.56358944	      4.07123420	      7.15641217	      8.83002587
      3.68000000	     -9.00335046	     -3.72268858	     -8.26111438	      1.34402492	      0.96724447	      0.25594102	     10.68352537	      4.83268017	     -3.54589222	    -41.69016747	     16.13712566	      9.70766847	     34.48845456	     -3.28084055	     -1.74797127	    -29.11307348	      8.40521433	      0.21322140	      4.26026711	      6.75493907	      8.92373147
      3.69000000	     -9.09057188	     -3.29056970	     -8.53091121	      1.35012187	      0.96747660	      0.25517522	     11.72142781	      4.10826338	     -3.58777085	    -43.67282248	     15.14553291	      9.91581235	     34.18563860	     -2.90185233	     -2.14260695	    -29.10037045	      8.80132681	     -0.09417786	      4.39618753	      6.36539156	      8.96066437
      3.70000000	     -9.14891460	     -2.86858987	     -8.76519122	      1.35604241	      0.96770134	      0.25438241	     12.75905754	      3.39491646	     -3.63326952	    -45.62620028	     14.25173375	      9.92901803	     33.86871490	     -2.51195316	     -2.51778264	    -29.07955412	      9.19136686	     -0.37729007	      4.49471818	      5.98489263	      8.94353402
      3.71000000	     -9.17356013	     -2.45809794	     -8.96109805	      1.36178462	      0.96795465	      0.25359235	     13.78031966	      2.69566245	     -3.69165149	    -47.51957376	     13.51697222	      9.77351348	     33.52518986	     -2.10957231	     -2.85933160	    -29.03683069	      9.55892689	     -0.62165186	      4.54882281	      5.60303898	      8.88979852
      3.72000000	     -9.21408701	     -2.08222137	     -9.11989815	      1.36734668	      0.96816668	      0.25279801	     14.81774406	      2.04873588	     -3.76316724	    -49.30841725	     12.96767307	      9.34674395	     33.21497277	     -1.72202186	     -3.15088579	    -28.99245573	      9.94497207	     -0.94478543	      4.61761401	      5.26379007	      8.77113834
      3.73000000	     -9.18089077	     -1.70949712	     -9.23869715	      1.37277590	      0.96853053	      0.25197199	     15.76755295	      1.38783852	     -3.86582831	    -50.96043101	     12.67218194	      9.00478023	     32.81934620	     -1.30418996	     -3.41398102	    -28.90128544	     10.26283336	     -1.10144994	      4.59702952	      4.90992597	      8.63056741
      3.74000000	     -9.17390401	     -1.37678896	     -9.33114654	      1.37803016	      0.96889247	      0.25117290	     16.72207337	      0.79073143	     -3.97869830	    -52.44099608	     12.57286669	      8.45376742	     32.45528152	     -0.91379482	     -3.62626613	    -28.79408833	     10.56881681	     -1.30545011	      4.60164599	      4.60220869	      8.45237574
      3.75000000	     -9.18542931	     -1.11251242	     -9.39550637	      1.38312742	      0.96930141	      0.25041092	     17.64897775	      0.29948220	     -4.09105606	    -53.70223505	     12.57602087	      7.58417975	     32.10576235	     -0.57972175	     -3.78652080	    -28.66631292	     10.88606647	     -1.54789935	      4.61759736	      4.37261022	      8.21970860
      3.76000000	     -9.18696113	     -0.87842081	     -9.42766411	      1.38806873	      0.96980424	      0.24965665	     18.52775403	     -0.14859240	     -4.22036039	    -54.75106923	     12.73925648	      6.77312465	     31.73476111	     -0.25410747	     -3.88589988	    -28.49856895	     11.15022896	     -1.70120950	      4.61422808	      4.16495367	      7.98782201
      3.77000000	     -9.20381879	     -0.69688943	     -9.42905505	      1.39283255	      0.97036602	      0.24894547	     19.37497931	     -0.51021883	     -4.35505683	    -55.56961695	     12.98400777	      5.93097316	     31.37581792	      0.02822682	     -3.93699679	    -28.30995419	     11.37421030	     -1.82976385	      4.61565890	      4.00769829	      7.73527756
      3.78000000	     -9.23525341	     -0.57042127	     -9.39584588	      1.39740726	      0.97098655	      0.24827910	     20.18638741	     -0.77024176	     -4.47412176	    -56.15398739	     13.26834512	      5.10571551	     31.02471314	      0.26527951	     -3.94024610	    -28.09420032	     11.58797645	     -1.93607504	      4.61705049	      3.90085246	      7.45260553
      3.79000000	     -9.27882283	     -0.48947761	     -9.33138658	      1.40180293	      0.97167054	      0.24765858	     20.95990120	     -0.94010174	     -4.57434708	    -56.50750688	     13.56011441	      4.38575350	     30.67210359	      0.46292166	     -3.90631202	    -27.83839708	     11.75922051	     -2.01891104	      4.61685884	      3.83429178	      7.14430041
      3.80000000	     -9.32194303	     -0.44756405	     -9.23539904	      1.40602672	      0.97240253	      0.24710128	     21.68664566	     -1.02913441	     -4.65501494	    -56.64801891	     13.85581248	      3.80666159	     30.31339105	      0.62524014	     -3.84386035	    -27.56094703	     11.91405368	     -2.08460032	      4.60132109	      3.78977751	      6.81298119
      3.81000000	     -9.34561479	     -0.43849562	     -9.11585577	      1.41012128	      0.97319712	      0.24657093	     22.34443690	     -1.04328892	     -4.68543758	    -56.58370020	     14.18597809	      3.60893265	     29.91749871	      0.76055941	     -3.77254395	    -27.24433217	     12.08841621	     -2.09972706	      4.55062475	      3.76823879	      6.47804961
      3.82000000	     -9.37580853	     -0.42484195	     -8.96335954	      1.41408264	      0.97398124	      0.24606694	     22.97941163	     -1.02423686	     -4.67782254	    -56.34632219	     14.47045279	      3.41357288	     29.51937325	      0.90420097	     -3.68692381	    -26.88789228	     12.20070014	     -2.12655392	      4.50389539	      3.72334179	      6.11712986
      3.83000000	     -9.39118269	     -0.41299527	     -8.78379070	      1.41796502	      0.97476626	      0.24555949	     23.56037201	     -0.96903283	     -4.61692899	    -55.94126471	     14.75992838	      3.30023847	     29.09852246	      1.04980886	     -3.61637579	    -26.50323170	     12.29826638	     -2.15659881	      4.43783802	      3.67033616	      5.73683722
      3.84000000	     -9.35663064	     -0.38185102	     -8.56036046	      1.42183017	      0.97558693	      0.24502618	     24.04695582	     -0.92439601	     -4.52630527	    -55.38083384	     15.10361262	      3.31704257	     28.61742415	      1.23009048	     -3.55914268	    -26.08936826	     12.37501417	     -2.20360454	      4.32398220	      3.57432236	      5.31229370
      3.85000000	     -9.26521051	     -0.33948613	     -8.33118833	      1.42565662	      0.97644351	      0.24451312	     24.44027649	     -0.87072603	     -4.36924672	    -54.68958300	     15.54665251	      3.54069868	     28.06055296	      1.42590219	     -3.51000395	    -25.63871936	     12.45775064	     -2.25213809	      4.14463614	      3.45178039	      4.89774637
      3.86000000	     -9.13922644	     -0.30042939	     -8.13290230	      1.42941565	      0.97731692	      0.24409871	     24.76125226	     -0.78073304	     -4.12876793	    -53.86648979	     16.05733641	      4.03155694	     27.45558269	      1.60097740	     -3.48945730	    -25.16773155	     12.54441113	     -2.31565203	      3.92297851	      3.32508902	      4.54852265
      3.87000000	     -9.03596004	     -0.23690914	     -7.91898504	      1.43303851	      0.97807015	      0.24368578	     25.08444108	     -0.73101611	     -3.91837639	    -52.94708782	     16.61671781	      4.41429834	     26.89013579	      1.79908305	     -3.46368020	    -24.70219152	     12.61293777	     -2.35281588	      3.72730049	      3.17050621	      4.17342643
      3.88000000	     -8.95812045	     -0.18819995	     -7.75274821	      1.43649364	      0.97872885	      0.24339716	     25.40458267	     -0.66329985	     -3.71360789	    -51.92329550	     17.21350468	      4.83513800	     26.36550502	      1.94641373	     -3.49580055	    -24.25677244	     12.69475679	     -2.41470645	      3.54971576	      3.03836723	      3.86135782
      3.89000000	     -8.92163107	     -0.14675236	     -7.62338007	      1.43975611	      0.97926226	      0.24319664	     25.74471957	     -0.59891289	     -3.54434981	    -50.81565407	     17.80287134	      5.18522107	     25.90434283	      2.06017414	     -3.55731347	    -23.83441209	     12.77673853	     -2.49475399	      3.40855244	      2.92310286	      3.59876036
      3.90000000	     -8.98142070	     -0.12292393	     -7.53319220	      1.44280406	      0.97957325	      0.24311273	     26.16448191	     -0.50885742	     -3.40490576	    -49.63999594	     18.34530981	      5.25064305	     25.58107461	      2.12174560	     -3.63416704	    -23.46703192	     12.86413979	     -2.53190751	      3.37084818	      2.84099019	      3.39144353
